<svg xmlns="http://www.w3.org/2000/svg" viewBox="0 0 64 64" width="64" height="64">
  <!-- Background circle -->
  <circle cx="32" cy="32" r="30" fill="#4A90A4"/>
  <!-- Inner ring -->
  <circle cx="32" cy="32" r="24" fill="none" stroke="#fff" stroke-width="2" opacity="0.3"/>
  <!-- Knot symbol - simplified Celtic knot -->
  <path d="M32 14 C24 14 18 20 18 28 C18 32 20 36 24 38 C20 40 18 44 18 48 C18 48 18 50 32 50 C46 50 46 48 46 48 C46 44 44 40 40 38 C44 36 46 32 46 28 C46 20 40 14 32 14 Z" fill="none" stroke="#fff" stroke-width="3" stroke-linecap="round"/>
  <circle cx="32" cy="32" r="6" fill="#fff"/>
</svg>
